<svg width="123" height="74" viewBox="0 0 123 74" fill="none" xmlns="http://www.w3.org/2000/svg">
<g clip-path="url(#clip0_827_2)">
<path d="M0 49.7714C0 42.4041 3.42644 35.8266 8.79281 31.4886L12.0069 34.6476C7.44978 38.162 4.51693 43.6282 4.51693 49.7657C4.51693 60.371 13.2638 68.9736 24.0597 68.9736C34.8556 68.9736 43.6024 60.3766 43.6024 49.7657C43.6024 43.6564 40.6983 38.2128 36.1756 34.6927L39.3897 31.5337C44.7274 35.8717 48.1251 42.4267 48.1251 49.7657C48.1251 62.8305 37.3522 73.4132 24.0597 73.4132C10.7672 73.4132 0 62.8305 0 49.7714Z" fill="#ECB421"/>
<path d="M24.0597 5.53955L8.61492 20.7197L24.0597 35.8999L39.5045 20.7197L24.0597 5.53955ZM24.0597 0L45.1464 20.7254L24.0597 41.4507L2.9788 20.7254L24.0597 0Z" fill="black"/>
<path d="M63.8626 18.2489V7.90881H63.128V18.2489C63.128 19.6084 62.3532 20.2967 61.3775 20.2967C60.8265 20.2967 60.3616 20.0428 60.0344 19.6254L59.4835 20.0766C59.9598 20.6351 60.5682 20.9454 61.3832 20.9454C62.026 20.9454 62.6746 20.7479 63.1337 20.291C63.6101 19.8228 63.8684 19.1346 63.8684 18.2433L63.8626 18.2489ZM70.9508 20.8043V20.15H67.4498V14.6781H70.4745V14.0238H67.4498V8.5519H70.9508V7.89753H66.7094V20.7931H70.9508V20.8043ZM81.322 7.90881L79.9216 19.3207L77.6373 7.90881H76.7878L74.538 19.3207L73.1031 7.90881H72.2939L74.1534 20.8043H74.9283L77.2126 9.39242L79.537 20.8043H80.3119L82.137 7.90881H81.322ZM88.1175 20.8043V20.15H84.6164V14.6781H87.6411V14.0238H84.6164V8.5519H88.1175V7.89753H83.876V20.7931H88.1175V20.8043ZM94.9531 20.8043V20.15H91.4521V7.90318H90.7174V20.7987H94.9589L94.9531 20.8043ZM101.267 20.8043V20.15H97.7655V7.90318H97.0308V20.7987H101.272L101.267 20.8043ZM107.586 20.8043V20.15H104.085V14.6781H107.109V14.0238H104.085V8.5519H107.586V7.89753H103.344V20.7931H107.586V20.8043ZM115.575 20.8043L113.491 14.7345C114.525 14.4299 115.15 13.5217 115.15 11.3837C115.15 8.25292 113.784 7.90318 112.499 7.90318H110.174V20.7987H110.909V14.8417H112.791L114.766 20.7987H115.575V20.8043ZM114.416 11.3837C114.416 13.2679 113.939 14.2099 112.556 14.2099H110.914V8.55754H112.556C113.939 8.55754 114.416 9.4996 114.416 11.3837ZM121.911 7.90881H121.102L119.311 14.0858L117.544 7.90881H116.734L118.944 15.2817V20.8043H119.679V15.2817L121.905 7.90881H121.911Z" fill="black"/>
<path d="M65.9346 48.2877C65.9346 47.3908 65.6935 46.68 65.154 46.1892C64.7121 45.7718 64.1439 45.5349 63.2198 45.4051L62.0088 45.2246C61.5841 45.1682 61.2856 45.0272 61.0848 44.8467C60.8724 44.6492 60.7978 44.401 60.7978 44.1359C60.7978 43.4477 61.2971 42.8779 62.3474 42.8779C63.019 42.8779 63.7995 42.9625 64.4251 43.5605L65.6763 42.342C64.8097 41.5184 63.7995 41.1856 62.4048 41.1856C60.2124 41.1856 58.8808 42.4266 58.8808 44.2036C58.8808 45.0441 59.1219 45.6985 59.604 46.161C60.0574 46.5954 60.6715 46.8605 61.5669 46.9846L62.7779 47.1652C63.2887 47.2328 63.4896 47.3175 63.6905 47.5036C63.9028 47.7123 64.0061 47.9944 64.0061 48.3272C64.0061 49.1226 63.3805 49.5739 62.1982 49.5739C61.2742 49.5739 60.4075 49.3652 59.7647 48.7334L58.4848 49.9913C59.4777 50.9842 60.6428 51.3057 62.181 51.3057C64.3161 51.3057 65.9346 50.217 65.9346 48.2877ZM79.9216 46.2457C79.9216 44.3446 79.8929 43.2277 78.8827 42.2348C78.1997 41.5636 77.3446 41.1856 76.1795 41.1856C75.0144 41.1856 74.142 41.5636 73.4647 42.2348C72.4546 43.2277 72.4431 44.3446 72.4431 46.2457C72.4431 48.1467 72.4546 49.2693 73.4647 50.2565C74.1477 50.9278 75.0144 51.3057 76.1795 51.3057C77.3446 51.3057 78.1997 50.9278 78.8827 50.2565C79.8929 49.2636 79.9216 48.1467 79.9216 46.2457ZM77.9415 46.2457C77.9415 48.1467 77.8152 48.6093 77.4421 49.0267C77.1552 49.3483 76.719 49.5739 76.1737 49.5739C75.6285 49.5739 75.1923 49.3483 74.8938 49.0267C74.5265 48.6093 74.4117 48.1467 74.4117 46.2457C74.4117 44.3446 74.5265 43.8708 74.8938 43.4477C75.1923 43.1261 75.6342 42.9174 76.1737 42.9174C76.7132 42.9174 77.1552 43.1261 77.4421 43.4477C77.8095 43.8651 77.9415 44.3446 77.9415 46.2457ZM94.2128 47.8139V41.2702H92.2499V47.7462C92.2499 48.8913 91.5497 49.5795 90.4879 49.5795C89.4261 49.5795 88.7373 48.897 88.7373 47.7462V41.2702H86.763V47.8139C86.763 49.9237 88.4102 51.3057 90.4879 51.3057C92.5655 51.3057 94.2128 49.9237 94.2128 47.8139ZM107.913 43.002V41.2702H100.647V43.002H103.293V51.2211H105.267V43.002H107.913ZM121.883 51.2211V41.2702H119.908V45.3374H116.476V41.2702H114.502V51.2211H116.476V47.0523H119.908V51.2211H121.883Z" fill="black"/>
<path d="M67.7425 65.51L64.0463 55.5591H62.4966L58.8119 65.51H60.8724L61.4865 63.75H65.0851L65.682 65.51H67.7425ZM64.5571 62.1141H62.0375L63.3174 58.4925L64.5571 62.1141ZM78.6531 57.2853V55.5535H71.9839V65.5043H73.9583V61.4653H77.9529V59.7335H73.9583V57.2853H78.6531ZM91.0273 65.51L88.766 61.2171C89.7475 60.8674 90.6141 60.0043 90.6141 58.6053C90.6141 56.9412 89.3916 55.5591 87.3311 55.5591H83.3652V65.51H85.3396V61.5387H86.7629L88.743 65.51H91.0331H91.0273ZM88.6397 58.6053C88.6397 59.3725 88.0715 59.9197 87.2049 59.9197H85.3396V57.2909H87.2049C88.0715 57.2909 88.6397 57.8381 88.6397 58.6053ZM97.6277 65.51V55.5591H95.6533V65.51H97.6277ZM110.088 62.4469H108.085C107.884 63.2592 107.362 63.8571 106.375 63.8571C105.835 63.8571 105.393 63.6597 105.106 63.3382C104.739 62.9207 104.607 62.43 104.607 60.5289C104.607 58.6279 104.733 58.1371 105.106 57.7196C105.393 57.3981 105.829 57.2007 106.375 57.2007C107.356 57.2007 107.867 57.8043 108.068 58.6109H110.088C109.721 56.5294 108.269 55.4688 106.375 55.4688C105.209 55.4688 104.354 55.8468 103.66 56.5181C102.65 57.5109 102.638 58.6279 102.638 60.5289C102.638 62.43 102.65 63.5469 103.66 64.5397C104.354 65.211 105.209 65.589 106.375 65.589C108.251 65.589 109.715 64.5284 110.088 62.4469ZM122.468 65.51L118.772 55.5591H117.222L113.537 65.51H115.598L116.212 63.75H119.811L120.407 65.51H122.468ZM119.283 62.1141H116.763L118.043 58.4925L119.283 62.1141Z" fill="black"/>
<path d="M66.8587 33.3388H65.7108C65.4238 34.6476 64.4711 35.4768 63.128 35.4768C62.4049 35.4768 61.7678 35.223 61.2685 34.7322C60.5912 34.0496 60.5108 33.2768 60.5108 31.1106C60.5108 28.9444 60.5855 28.1716 61.2685 27.489C61.7678 26.9983 62.3991 26.7444 63.128 26.7444C64.4711 26.7444 65.3951 27.5736 65.6821 28.8824H66.8587C66.4799 26.908 65.0794 25.7403 63.128 25.7403C62.0088 25.7403 61.1078 26.1239 60.442 26.7782C59.4318 27.7711 59.3744 28.6906 59.3744 31.1106C59.3744 33.5306 59.4376 34.4501 60.442 35.443C61.1078 36.0917 62.0146 36.4809 63.128 36.4809C65.0622 36.4809 66.4799 35.3076 66.8587 33.3388ZM76.6329 31.1106C76.6329 28.6906 76.5583 27.7711 75.5482 26.7782C74.8824 26.1239 73.9928 25.7403 72.8736 25.7403C71.7544 25.7403 70.8476 26.1239 70.1875 26.7782C69.1774 27.7711 69.12 28.6906 69.12 31.1106C69.12 33.5306 69.1774 34.4501 70.1875 35.443C70.8533 36.0917 71.7601 36.4809 72.8736 36.4809C73.987 36.4809 74.8824 36.0973 75.5482 35.443C76.5583 34.4501 76.6329 33.5306 76.6329 31.1106ZM75.485 31.1106C75.485 33.2768 75.4104 34.0496 74.7274 34.7322C74.2281 35.223 73.5967 35.4768 72.8678 35.4768C72.1389 35.4768 71.5076 35.223 71.0083 34.7322C70.331 34.0496 70.2507 33.2768 70.2507 31.1106C70.2507 28.9444 70.3253 28.1716 71.0083 27.489C71.5076 26.9983 72.1389 26.7444 72.8678 26.7444C73.5967 26.7444 74.2281 26.9983 74.7274 27.489C75.4047 28.1716 75.485 28.9444 75.485 31.1106ZM86.9639 32.9101V25.8305H85.816V32.8199C85.816 34.4219 84.7714 35.4768 83.2046 35.4768C81.6377 35.4768 80.6046 34.4219 80.6046 32.8199V25.8305H79.4567V32.9101C79.4567 35.0142 81.0236 36.4866 83.1988 36.4866C85.3741 36.4866 86.9581 35.0199 86.9581 32.9101H86.9639ZM98.1443 36.3963V25.8305H96.9964V34.2753L91.2857 25.8305H90.2009V36.3963H91.3488V27.9234L97.0595 36.3963H98.1443ZM108.607 33.3388H107.459C107.172 34.6476 106.22 35.4768 104.877 35.4768C104.153 35.4768 103.516 35.223 103.017 34.7322C102.34 34.0496 102.259 33.2768 102.259 31.1106C102.259 28.9444 102.334 28.1716 103.017 27.489C103.516 26.9983 104.148 26.7444 104.877 26.7444C106.22 26.7444 107.144 27.5736 107.431 28.8824H108.607C108.228 26.908 106.828 25.7403 104.877 25.7403C103.757 25.7403 102.856 26.1239 102.191 26.7782C101.18 27.7711 101.123 28.6906 101.123 31.1106C101.123 33.5306 101.186 34.4501 102.191 35.443C102.856 36.0917 103.763 36.4809 104.877 36.4809C106.811 36.4809 108.228 35.3076 108.607 33.3388ZM112.567 36.3963V25.8305H111.42V36.3963H112.567ZM122.6 36.3963V35.3866H117.102V25.8305H115.954V36.3963H122.6Z" fill="black"/>
</g>
<defs>
<clipPath id="clip0_827_2">
<rect width="122.6" height="73.4132" fill="white"/>
</clipPath>
</defs>
</svg>
